<svg fill="#000000" xmlns="http://www.w3.org/2000/svg"  viewBox="0 0 64 64" width="48px" height="48px"><path d="M10,32c0-12.131,9.869-22,22-22s22,9.869,22,22c0,10.051-6.777,18.542-16,21.16V56c0,1.104-0.896,2-2,2	s-2-0.896-2-2V39.803l3.581,3.606c0.778,0.784,2.045,0.788,2.829,0.01C40.803,43.028,41,42.515,41,42c0-0.51-0.193-1.02-0.581-1.409	l-7-7.05C33.044,33.163,32.533,32.95,32,32.95s-1.044,0.213-1.419,0.591l-7,7.05c-0.778,0.784-0.773,2.052,0.01,2.828	c0.784,0.778,2.05,0.774,2.829-0.01L30,39.803v14.102C18.803,52.891,10,43.456,10,32z"/></svg>