<?xml version="1.0" encoding="UTF-8"?>
<svg width="24px" height="24px" viewBox="0 0 24 24" version="1.1" xmlns="http://www.w3.org/2000/svg" xmlns:xlink="http://www.w3.org/1999/xlink">
    <title>behance-24@3x</title>
    <g id="⚙️-Symbols" stroke="none" stroke-width="1" fill="none" fill-rule="evenodd">
        <g id="3.-Section/Footer-Section" transform="translate(-1120.000000, -216.000000)" fill="#282828">
            <g id="3.-Social" transform="translate(1120.000000, 128.000000)">
                <g id="social-icon" transform="translate(0.000000, 56.000000)">
                    <g id="Behance" transform="translate(0.000000, 32.000000)">
                        <g id="Instagram" transform="translate(2.000000, 6.000000)">
                            <g id="behance-2" transform="translate(0.000000, -0.000000)">
                                <path d="M5.92337513,0 C6.52278751,0 7.06926347,0.0545687814 7.56290308,0.163913044 C8.05654269,0.273153957 8.47963377,0.452362796 8.83217631,0.700919461 C9.18471885,0.949786177 9.45800686,1.28060941 9.65194028,1.69338917 C9.8458737,2.10616893 9.94284041,2.61589096 9.94284041,3.22276195 C9.94284041,3.87831078 9.79884135,4.42451534 9.51094328,4.86137564 C9.22284508,5.2983393 8.79695207,5.65634357 8.23286399,5.93559518 C9.00849761,6.1662723 9.58729581,6.57006061 9.96935866,7.14634002 C10.3510212,7.72303282 10.5424529,8.41806133 10.5424529,9.23111551 C10.5424529,9.88656098 10.419068,10.454159 10.1720981,10.9337028 C9.92542843,11.41335 9.59319987,11.8047363 9.17621299,12.1077584 C8.75892591,12.4114006 8.28289842,12.6357734 7.74823058,12.7817035 C7.21021276,12.927644 6.6561608,13.0010125 6.09989657,12.9999894 L0,12.9999894 L0,0 L5.92337513,0 Z M5.57083259,5.26206346 C6.0644722,5.26206346 6.46985109,5.1407306 6.78726946,4.89785818 C7.10458777,4.65519246 7.26319689,4.2606023 7.26319689,3.71439774 C7.26319689,3.41106559 7.21036054,3.16209552 7.10458777,2.96790094 C6.998815,2.77380971 6.857818,2.62178191 6.68149669,2.51274769 C6.50517539,2.40340343 6.30243591,2.32785461 6.07327826,2.28506772 C5.83757275,2.24207882 5.59863884,2.22077409 5.35928705,2.22139057 L2.76780418,2.22139057 L2.76780418,5.26216681 L5.57083259,5.26216681 L5.57083259,5.26206346 Z M5.72944171,10.7786779 C5.99962759,10.7786779 6.25830555,10.7512901 6.50507532,10.6967214 C6.75184509,10.6420492 6.96919462,10.5509979 7.15742412,10.4234641 C7.34525334,10.2962402 7.49515647,10.1231291 7.60693337,9.90454388 C7.71851013,9.6861654 7.77434855,9.40701715 7.77434855,9.06699576 C7.77434855,8.39966504 7.59202311,7.9232217 7.22787259,7.63787245 C6.86342185,7.35262655 6.38159037,7.20990024 5.78227806,7.20990024 L2.76780418,7.20990024 L2.76780418,10.7784712 L5.72944171,10.7786779 L5.72944171,10.7786779 Z M14.0255492,10.5056273 C14.4016079,10.8822345 14.9422799,11.0700214 15.647465,11.0700214 C16.1526126,11.0700214 16.5876118,10.9398005 16.9518624,10.6786351 C17.3162131,10.4179865 17.5395668,10.1416287 17.6218234,9.8501818 L19.8254394,9.8501818 C19.4729969,10.9789701 18.9321248,11.78634 18.2036236,12.2716715 C17.4747222,12.757313 16.5932157,12.9999787 15.5591043,12.9999787 C14.8422111,12.9999787 14.1956662,12.881643 13.6198701,12.6448682 C13.0438738,12.4083001 12.5560382,12.0713792 12.1567635,11.6344156 C11.7570886,11.1975553 11.4485763,10.675948 11.2311267,10.068767 C11.0135771,9.46199933 10.9051024,8.79425521 10.9051024,8.065948 C10.9051024,7.36213474 11.016479,6.70668927 11.2400328,6.09971492 C11.4630863,5.49294728 11.7803045,4.96792946 12.1920878,4.52466146 C12.6031707,4.08180686 13.0940083,3.73279403 13.6641005,3.47782967 C14.2339926,3.2228653 14.8657272,3.09553815 15.5592043,3.09553815 C16.334938,3.09553815 17.0106028,3.25025304 17.5866992,3.55978619 C18.1623953,3.86921598 18.6355207,4.28540629 19.0058755,4.80691021 C19.3760302,5.32893089 19.643214,5.92381328 19.8081275,6.59114401 C19.9726407,7.25888813 20.0311809,7.95670709 19.9844488,8.68501429 L13.4087249,8.68501429 C13.443849,9.52235571 13.6491903,10.1295368 14.0255492,10.5056273 L14.0255492,10.5056273 Z M16.8549958,5.55330366 C16.5553897,5.21359232 16.0997762,5.04347828 15.4888559,5.04347828 C15.089181,5.04347828 14.7572526,5.11344621 14.4928707,5.25286531 C14.2283888,5.39269781 14.0167432,5.56529225 13.858034,5.77178548 C13.6995249,5.97827871 13.5876479,6.19686389 13.5232036,6.42723096 C13.4584591,6.65790808 13.4202328,6.86429796 13.4085247,7.04629725 L17.4808264,7.04629725 C17.3633455,6.39074842 17.1548021,5.89322169 16.8549958,5.55330366 L16.8549958,5.55330366 Z M12.9810306,0.660096225 L18.0691311,0.660096225 L18.0691311,2.11712403 L12.9810306,2.11712403 L12.9810306,0.660096225 Z" id="Shape"></path>
                            </g>
                        </g>
                    </g>
                </g>
            </g>
        </g>
    </g>
</svg>