<?xml version="1.0" encoding="UTF-8"?>
<svg width="32px" height="32px" viewBox="0 0 32 32" version="1.1" xmlns="http://www.w3.org/2000/svg" xmlns:xlink="http://www.w3.org/1999/xlink">
    <title>behance-32@3x</title>
    <g id="🖥-Website-UI" stroke="none" stroke-width="1" fill="none" fill-rule="evenodd">
        <g id="5.-Contact" transform="translate(-176.000000, -764.000000)" fill="#1769FF" fill-rule="nonzero">
            <g id="3.-Social" transform="translate(160.000000, 636.000000)">
                <g id="5." transform="translate(0.000000, 112.000000)">
                    <g id="behance-32" transform="translate(16.000000, 16.000000)">
                        <g id="behance-2" transform="translate(2.666667, 8.000000)">
                            <path d="M7.8978335,0 C8.69705001,0 9.42568462,0.0727583752 10.0838708,0.218550726 C10.7420569,0.364205276 11.3061784,0.603150395 11.7762351,0.934559282 C12.2462918,1.26638157 12.6106758,1.70747922 12.8692537,2.25785223 C13.1278316,2.80822524 13.2571206,3.48785461 13.2571206,4.29701594 C13.2571206,5.17108104 13.0651218,5.89935379 12.6812577,6.48183419 C12.2971268,7.06445239 11.7292694,7.54179143 10.977152,7.9141269 C12.0113301,8.2216964 12.7830611,8.76008082 13.2924782,9.52845336 C13.8013616,10.2973771 14.0566039,11.2240818 14.0566039,12.308154 C14.0566039,13.1820813 13.8920907,13.9388787 13.5627975,14.5782704 C13.2339046,15.2178 12.7909332,15.7396484 12.2349507,16.1436779 C11.6785679,16.5485342 11.0438646,16.8476979 10.3309741,17.0422714 C9.61361702,17.2368587 8.87488107,17.3346833 8.13319543,17.3333193 L0,17.3333193 L0,0 L7.8978335,0 Z M7.42777678,7.01608461 C8.08596293,7.01608461 8.62646812,6.85430747 9.04969262,6.53047758 C9.47278369,6.20692329 9.68426252,5.68080307 9.68426252,4.95253031 C9.68426252,4.54808745 9.61381405,4.21612736 9.47278369,3.95720125 C9.33175334,3.69841294 9.14375733,3.49570921 8.90866226,3.35033026 C8.67356719,3.20453791 8.40324788,3.10380614 8.09770434,3.04675696 C7.78343033,2.98943842 7.46485179,2.96103212 7.14571607,2.96185409 L3.69040557,2.96185409 L3.69040557,7.01622241 L7.42777678,7.01622241 L7.42777678,7.01608461 Z M7.63925561,14.3715705 C7.99950345,14.3715705 8.3444074,14.3350535 8.67343376,14.2622951 C9.00246012,14.189399 9.2922595,14.0679972 9.54323216,13.8979521 C9.79367112,13.7283203 9.99354196,13.4975054 10.1425778,13.2060585 C10.2913468,12.9148872 10.3657981,12.5426895 10.3657981,12.0893277 C10.3657981,11.1995534 10.1226975,10.5642956 9.63716345,10.1838299 C9.15122914,9.80350206 8.50878716,9.61320033 7.70970407,9.61320033 L3.69040557,9.61320033 L3.69040557,14.3712949 L7.63925561,14.3715705 L7.63925561,14.3715705 Z M18.7007323,14.007503 C19.2021439,14.5096461 19.9230399,14.7600286 20.8632867,14.7600286 C21.5368168,14.7600286 22.1168158,14.5864006 22.6024832,14.2381802 C23.0882841,13.8906487 23.386089,13.5221716 23.4957645,13.1335757 L26.4339192,13.1335757 C25.9639959,14.6386268 25.2428331,15.71512 24.2714982,16.3622286 C23.2996295,17.0097506 22.1242876,17.3333049 20.7454723,17.3333049 C19.7896147,17.3333049 18.927555,17.175524 18.1598268,16.8598243 C17.3918318,16.5444002 16.7413843,16.0951723 16.209018,15.5125541 C15.6761181,14.9300737 15.2647684,14.2345974 14.9748356,13.4250226 C14.6847694,12.6159991 14.5401366,11.7256736 14.5401366,10.7545973 C14.5401366,9.81617966 14.6886387,8.94225235 14.9867105,8.13295323 C15.2841151,7.32392971 15.7070727,6.62390594 16.2561171,6.03288195 C16.8042275,5.44240915 17.4586778,4.97705871 18.2188007,4.63710622 C18.9786568,4.29715374 19.8209696,4.12738419 20.7456058,4.12738419 C21.7799173,4.12738419 22.6808038,4.33367072 23.4489323,4.74638158 C24.216527,5.15895464 24.847361,5.71387505 25.3411674,6.40921362 C25.8347069,7.10524118 26.190952,7.89841771 26.4108366,8.78819201 C26.6301875,9.6785175 26.7082412,10.6089428 26.6459317,11.5800191 L17.8782998,11.5800191 C17.925132,12.6964743 18.1989204,13.506049 18.7007323,14.007503 L18.7007323,14.007503 Z M22.4733277,7.40440488 C22.0738529,6.95145643 21.4663683,6.72463771 20.6518079,6.72463771 C20.1189079,6.72463771 19.6763368,6.81792828 19.3238276,7.00382041 C18.971185,7.19026375 18.6889909,7.42038967 18.4773786,7.69571398 C18.2660332,7.97103829 18.1168639,8.26248519 18.0309381,8.56964128 C17.9446121,8.87721078 17.8936437,9.15239728 17.878033,9.395063 L23.3077685,9.395063 C23.1511274,8.5209979 22.8730694,7.85762892 22.4733277,7.40440488 L22.4733277,7.40440488 Z M17.3080408,0.8801283 L24.0921748,0.8801283 L24.0921748,2.82283204 L17.3080408,2.82283204 L17.3080408,0.8801283 Z" id="Shape"></path>
                        </g>
                    </g>
                </g>
            </g>
        </g>
    </g>
</svg>