<?xml version="1.0" encoding="UTF-8"?>
<svg width="24px" height="24px" viewBox="0 0 24 24" version="1.1" xmlns="http://www.w3.org/2000/svg" xmlns:xlink="http://www.w3.org/1999/xlink">
    <title>1. Icons/Social/Dribbble@3x</title>
    <g id="⚙️-Symbols" stroke="none" stroke-width="1" fill="none" fill-rule="evenodd">
        <g id="1.-Icons/Social/Dribbble" fill="#282828">
            <path d="M20.056,13.4833179 C19.676,15.5873179 18.493,17.3913179 16.85,18.6133179 C16.4873953,16.7547528 15.984967,14.9262213 15.347,13.1433179 C15.847,13.0833179 16.349,13.0433179 16.81,13.0433179 C18.353,13.0433179 19.615,13.3433179 20.056,13.4833179 M8.413,4.7053179 C8.773,5.2063179 10.056,6.9903179 11.279,9.1353179 C7.912,9.9963179 4.966,10.0763179 4.104,10.0763179 C4.665,7.7313179 6.269,5.7683179 8.413,4.7063179 M16.489,11.3393179 C15.908,11.3393179 15.307,11.3593179 14.685,11.4393179 L14.565,11.1393179 C14.425,10.7983179 14.265,10.4373179 14.105,10.0963179 C15.3465397,9.59234843 16.4971147,8.88835597 17.511,8.0123179 C17.891,7.6723179 18.173,7.3913179 18.353,7.1703179 C18.393,7.1103179 18.433,7.0703179 18.473,7.0303179 C19.5106648,8.37152759 20.0995253,10.0055016 20.156,11.7003179 C19.616,11.5803179 18.173,11.3393179 16.489,11.3393179 M8.473,16.7493179 C9.475,15.7083179 11.038,14.4653179 13.383,13.6033179 C14.1133702,15.5423174 14.6764254,17.540277 15.066,19.5753179 C14.0977753,19.9641925 13.0633897,20.1618329 12.02,20.1573179 C10.2571504,20.159771 8.5411456,19.589875 7.13,18.5333179 C7.29,18.2533179 7.711,17.5713179 8.473,16.7503179 M16.409,6.6903179 C15.4754674,7.48289621 14.4108476,8.10657523 13.263,8.5333179 C12.3990758,6.97413115 11.442009,5.46840397 10.397,4.0243179 C10.917,3.9243179 11.459,3.8643179 12.02,3.8643179 C14.024,3.8643179 15.848,4.5853179 17.27,5.7883179 C17.13,5.9483179 16.85,6.2883179 16.409,6.6903179 M3.884,11.9403179 L3.984,11.9403179 C4.986,11.9403179 8.493,11.8603179 12.18,10.7783179 C12.36,11.1383179 12.521,11.4793179 12.681,11.8403179 C12.641,11.8603179 12.601,11.8603179 12.561,11.8803179 C10.257,12.6213179 8.553,14.0243179 7.391,15.2263179 C6.569,16.0883179 6.028,16.8703179 5.808,17.2303179 C4.5689768,15.7625536 3.89389006,13.9011012 3.904,11.9803179 C3.884,12.0003179 3.884,11.9603179 3.884,11.9403179 M22,12.0003179 C22,11.3193179 21.94,10.6573179 21.8,9.9963179 C21.66,9.3553179 21.48,8.7333179 21.218,8.1123179 C20.9709546,7.51421679 20.6622895,6.94347137 20.297,6.4093179 C19.936,5.8883179 19.535,5.3873179 19.074,4.9263179 C18.6260048,4.46550836 18.1286808,4.05537536 17.591,3.7033179 C17.0522863,3.34556074 16.4822939,3.03730294 15.888,2.7823179 C15.2801992,2.52812294 14.6492708,2.33321831 14.004,2.2003179 C13.3448869,2.06339681 12.673173,1.9963595 12,2.00015234 C11.319,2.00015234 10.657,2.0603179 9.996,2.2003179 C9.34909423,2.3267844 8.71752214,2.52188789 8.112,2.7823179 C7.532,3.0423179 6.95,3.3423179 6.409,3.7033179 C5.888,4.0643179 5.387,4.4653179 4.926,4.9263179 C4.465,5.3663179 4.064,5.8683179 3.703,6.4093179 C3.343,6.9493179 3.043,7.5113179 2.782,8.1123179 C2.51886981,8.71684217 2.32367399,9.3487132 2.2,9.9963179 C2.06,10.6573179 2,11.3203179 2,12.0003179 C2,12.6803179 2.06,13.3633179 2.2,14.0043179 C2.34,14.6453179 2.521,15.2673179 2.782,15.8883179 C3.022,16.4893179 3.342,17.0503179 3.703,17.5913179 C4.064,18.1123179 4.465,18.6133179 4.926,19.0743179 C5.366,19.5153179 5.868,19.9363179 6.409,20.2973179 C6.949,20.6573179 7.511,20.9583179 8.112,21.2193179 C8.713,21.4793179 9.355,21.6593179 9.996,21.7993179 C10.657,21.9393179 11.339,22.0003179 12,22.0003179 C12.681,22.0003179 13.343,21.9403179 14.004,21.8003179 C14.6484851,21.664824 15.2791416,21.4703381 15.888,21.2193179 C16.4861024,20.9718699 17.0568408,20.6628736 17.591,20.2973179 C18.112,19.9363179 18.613,19.5353179 19.074,19.0743179 C19.515,18.6143179 19.936,18.1323179 20.297,17.5913179 C20.657,17.0513179 20.957,16.4893179 21.218,15.8883179 C21.479,15.2873179 21.659,14.6453179 21.8,14.0043179 C21.94,13.3633179 22,12.6813179 22,12.0003179" id="Shape"></path>
        </g>
    </g>
</svg>