<?xml version="1.0" encoding="UTF-8"?>
<svg width="32px" height="32px" viewBox="0 0 32 32" version="1.1" xmlns="http://www.w3.org/2000/svg" xmlns:xlink="http://www.w3.org/1999/xlink">
    <title>dribbble-32@3x</title>
    <g id="🖥-Website-UI" stroke="none" stroke-width="1" fill="none" fill-rule="evenodd">
        <g id="5.-Contact" transform="translate(-176.000000, -652.000000)">
            <g id="3.-Social" transform="translate(160.000000, 636.000000)">
                <g id="dribbble-32" transform="translate(16.000000, 16.000000)">
                    <g id="1.-Icons/Social/Dribbble" transform="translate(2.666667, 2.666667)">
                        <g id="dribbble-ball-icon" transform="translate(0.000000, 0.000000)">
                            <rect id="Rectangle" fill-opacity="0" fill="#000000" fill-rule="nonzero" x="0" y="0" width="26.6666667" height="26.6666667"></rect>
                            <circle id="Oval" fill="#EA4C89" fill-rule="nonzero" cx="13.3333333" cy="13.3333333" r="12.8"></circle>
                            <path d="M13.3333333,0 C5.97253333,0 0,5.97253333 0,13.3333333 C0,20.6941333 5.97253333,26.6666667 13.3333333,26.6666667 C20.67968,26.6666667 26.6666667,20.6941333 26.6666667,13.3333333 C26.6666667,5.97253333 20.67968,0 13.3333333,0 Z M22.1402667,6.14605333 C23.7310133,8.08386667 24.6854667,10.5567733 24.7144,13.2321067 C24.3384,13.1597867 20.5784533,12.39336 16.7896,12.87056 C16.7028267,12.6825867 16.6305067,12.4801067 16.54376,12.2776533 C16.3123733,11.7281333 16.0520533,11.1641333 15.79176,10.6290667 C19.9855467,8.92264 21.8944267,6.46421333 22.1402667,6.14605333 Z M13.3333333,1.96673867 C16.2256,1.96673867 18.8720267,3.05133333 20.8821333,4.83008 C20.67968,5.11930667 18.9587733,7.41866667 14.9096267,8.93709333 C13.0441067,5.50976 10.9761333,2.70426667 10.658,2.27042667 C11.5112,2.067968 12.4078133,1.96673867 13.3333333,1.96673867 Z M8.4888,3.03688 C8.79248,3.44178667 10.8170667,6.26176 12.7114933,9.61677333 C7.38973333,11.0339733 2.68981333,11.0051111 2.18365867,11.0051111 C2.92117333,7.47650667 5.30730667,4.54085333 8.4888,3.03688 Z M1.937816,13.3477867 C1.937816,13.2321067 1.937816,13.1164267 1.937816,13.00072 C2.42950133,13.0151733 7.95373333,13.0874933 13.6370133,11.3810667 C13.9696267,12.01736 14.2733067,12.6681067 14.5625333,13.31888 C14.41792,13.3622667 14.2588533,13.4056533 14.11424,13.4490133 C8.24296,15.3434667 5.11930667,20.5206133 4.85901333,20.9544533 C3.05133333,18.94432 1.937816,16.2689867 1.937816,13.3477867 Z M13.3333333,24.7288533 C10.7013867,24.7288533 8.27186667,23.83224 6.34850667,22.3282667 C6.55098667,21.9089067 8.8648,17.4548 15.2856,15.2133067 C15.3145333,15.1988533 15.3289867,15.1988533 15.35792,15.1843733 C16.96312,19.3347733 17.6138933,22.8199467 17.7874133,23.8177867 C16.4136,24.4106933 14.9096267,24.7288533 13.3333333,24.7288533 Z M19.6818667,22.7765867 C19.56616,22.0824267 18.9588,18.75632 17.46928,14.6637867 C21.0412267,14.0997867 24.1648533,15.0253067 24.5553067,15.1554667 C24.0636267,18.32248 22.2414933,21.05568 19.6818667,22.7765867 Z" id="Shape" fill="#C32361"></path>
                        </g>
                    </g>
                </g>
            </g>
        </g>
    </g>
</svg>