<svg width="24" height="24" viewBox="0 0 24 24" xmlns="http://www.w3.org/2000/svg">
    <g fill="none" fill-rule="evenodd">
        <path d="M0 0h24v24H0z"/>
        <path d="M19.586 12.376 21 13.806l-6.05 6.12a6.945 6.945 0 0 1-9.9 0c-2.733-2.764-2.733-7.245 0-10.01l6.364-6.435a4.96 4.96 0 0 1 7.071 0 5.096 5.096 0 0 1 0 7.15l-6.364 6.436a2.977 2.977 0 0 1-4.242 0 3.058 3.058 0 0 1 0-4.29l6.364-6.436 1.414 1.43-6.364 6.435a1.02 1.02 0 0 0 0 1.43.992.992 0 0 0 1.414 0l6.364-6.435a3.058 3.058 0 0 0 0-4.29 2.977 2.977 0 0 0-4.243 0l-6.364 6.435a5.096 5.096 0 0 0 0 7.15 4.96 4.96 0 0 0 7.072 0l6.05-6.12z" fill="#3F404D"/>
    </g>
</svg>
