<?xml version="1.0" encoding="UTF-8"?>
<svg width="24px" height="24px" viewBox="0 0 24 24" version="1.1" xmlns="http://www.w3.org/2000/svg" xmlns:xlink="http://www.w3.org/1999/xlink">
    <title>linkedin-24@3x</title>
    <g id="âš™ï¸-Symbols" stroke="none" stroke-width="1" fill="none" fill-rule="evenodd">
        <g id="4.-Elements/1.Menu" transform="translate(-1028.000000, -12.000000)" fill="#282828">
            <g id="Group-8" transform="translate(960.000000, 4.000000)">
                <g id="Group-6-Copy-2" transform="translate(60.000000, 0.000000)">
                    <g id="linkedin-24" transform="translate(8.000000, 8.000000)">
                        <g id="Linkedin" transform="translate(2.000000, 2.000000)">
                            <path d="M9.98,0 C7.275,0 6.934,0.02 5.872,0.06 C4.81,0.1 4.088,0.28 3.447,0.521 C2.77951793,0.771003571 2.17693348,1.16816927 1.684,1.683 C1.18339412,2.18842546 0.787790689,2.78794819 0.52,3.447 C0.26,4.088 0.1,4.81 0.06,5.872 C0.02,6.934 0,7.275 0,10 C0,12.725 0.02,13.046 0.06,14.128 C0.1,15.19 0.28,15.912 0.521,16.553 C0.781,17.214 1.122,17.776 1.684,18.317 C2.244,18.877 2.806,19.218 3.447,19.479 C4.088,19.719 4.81,19.899 5.872,19.939 C6.934,19.98 7.275,20 10,20 C12.725,20 13.046,19.98 14.128,19.94 C15.19,19.9 15.912,19.72 16.553,19.479 C17.2208092,19.2290677 17.8237347,18.8319026 18.317,18.317 C18.8234923,17.8167811 19.2193588,17.2158272 19.479,16.553 C19.719,15.912 19.899,15.19 19.939,14.128 C19.98,13.066 20,12.725 20,10 C20,7.275 19.98,6.954 19.94,5.872 C19.9,4.81 19.72,4.088 19.479,3.447 C19.2291293,2.77915948 18.8319556,2.17622113 18.317,1.683 C17.8167244,1.1765769 17.215786,0.780720671 16.553,0.521 C15.892,0.281 15.17,0.101 14.108,0.061 C13.046,0.02 12.706,0 9.98,0 M9.98,1.804 C12.645,1.804 12.966,1.804 14.028,1.864 C15.01,1.904 15.531,2.064 15.892,2.204 C16.352,2.384 16.693,2.605 17.034,2.946 C17.374,3.286 17.595,3.627 17.776,4.088 C17.916,4.448 18.076,4.97 18.116,5.952 C18.176,7.014 18.176,7.335 18.176,10 C18.176,12.665 18.176,12.986 18.116,14.028 C18.076,15.01 17.916,15.531 17.776,15.892 C17.596,16.352 17.375,16.693 17.034,17.034 C16.694,17.374 16.353,17.595 15.892,17.776 C15.532,17.916 15.01,18.076 14.028,18.116 C12.966,18.156 12.665,18.176 9.98,18.176 C7.315,18.176 6.994,18.156 5.932,18.116 C4.95,18.076 4.429,17.916 4.068,17.776 C3.63748697,17.6154837 3.24759223,17.3621545 2.926,17.034 C2.59818118,16.7123291 2.34519442,16.3224359 2.185,15.892 C2.045,15.532 1.884,15.01 1.844,14.028 C1.804,12.966 1.784,12.665 1.784,9.98 C1.784,7.315 1.804,6.994 1.844,5.932 C1.884,4.95 2.044,4.429 2.184,4.068 C2.364,3.608 2.585,3.267 2.926,2.926 C3.24759223,2.59784547 3.63748697,2.34451631 4.068,2.184 C4.428,2.044 4.95,1.884 5.932,1.844 C6.994,1.804 7.315,1.804 9.98,1.804 M9.98,4.86997791 C7.1490615,4.87550233 4.85550233,7.1690615 4.85,10 C4.85550233,12.8309385 7.1490615,15.1244977 9.98,15.13 C12.8109385,15.1244977 15.1044977,12.8309385 15.1100221,10 C15.1139994,8.63821728 14.5748032,7.3310567 13.6118732,6.36812676 C12.6489433,5.40519681 11.3417827,4.86600061 9.98,4.86997791 M9.98,13.3270123 C9.09689158,13.3293987 8.24926172,12.9796468 7.62480746,12.3551925 C7.0003532,11.7307383 6.65060132,10.8831084 6.65298774,10 C6.65060132,9.11689158 7.0003532,8.26926172 7.62480746,7.64480746 C8.24926172,7.0203532 9.09689158,6.67060132 9.98,6.67298774 C10.8630268,6.67086901 11.710501,7.02070686 12.3348971,7.64510293 C12.9592931,8.269499 13.309131,9.11697318 13.3070097,10 C13.309131,10.8830268 12.9592931,11.730501 12.3348971,12.3548971 C11.710501,12.9792931 10.8630268,13.329131 9.98,13.3270123 M16.513,4.669 C16.513,5.331 15.972,5.872 15.311,5.872 C14.6472857,5.87035101 14.109649,5.33271432 14.108,4.669 C14.108,4.008 14.649,3.467 15.311,3.467 C15.992,3.467 16.513,3.988 16.513,4.669" id="Shape"></path>
                        </g>
                    </g>
                </g>
            </g>
        </g>
    </g>
</svg>