<?xml version="1.0" encoding="UTF-8"?>
<svg width="169px" height="24px" viewBox="0 0 169 24" version="1.1" xmlns="http://www.w3.org/2000/svg" xmlns:xlink="http://www.w3.org/1999/xlink">
    <title>Keshin Javiya</title>
    <g id="⚙️-Symbols" stroke="none" stroke-width="1" fill="none" fill-rule="evenodd">
        <g id="4.-Elements/1.Menu" transform="translate(0.000000, -12.000000)" fill="#282828" fill-rule="nonzero">
            <g id="Keshin-Javiya" transform="translate(0.000000, 12.000000)">
                <polygon id="Path" points="0 18.9333333 4.21333333 18.9333333 4.21333333 13.5466667 5.78666667 11.6 11.28 18.9333333 15.8933333 18.9333333 8.26666667 8.58666667 15.3066667 0 10.6133333 0 4.21333333 7.97333333 4.21333333 0 0 0"></polygon>
                <path d="M22.199596,19.2 C24.7329293,19.2 26.7062626,18.16 27.8529293,16.72 L25.9862626,14.7733333 C24.9729293,15.5466667 23.879596,15.84 22.6529293,15.84 C20.8129293,15.84 19.4262626,15.0933333 18.8662626,13.6 L28.7329293,13.6 C29.6129293,7.25333333 25.479596,4.8 21.959596,4.8 C18.3862626,4.8 14.8929293,7.33333333 14.8929293,12.0266667 C14.8929293,16.5866667 18.359596,19.2 22.199596,19.2 Z M18.7862626,10.64 C19.239596,8.98666667 20.6262626,8.26666667 22.0129293,8.26666667 C23.399596,8.26666667 24.8129293,9.04 25.1062626,10.64 L18.7862626,10.64 Z" id="Shape"></path>
                <path d="M34.7991919,19.2 C37.8925253,19.2 40.2658586,17.6266667 40.2658586,14.8266667 C40.2658586,12.32 38.2925253,11.28 36.7991919,10.7733333 L35.0658586,10.1333333 C34.1325253,9.84 33.8658586,9.41333333 33.8658586,8.96 C33.8658586,8.48 34.2658586,8 35.0658586,8 C35.6258586,8 36.3191919,8.24 36.6658586,9.30666667 L39.8925253,8.50666667 C39.4125253,6.26666667 37.5191919,4.8 34.9058586,4.8 C32.1858586,4.8 29.8658586,6.32 29.8658586,8.90666667 C29.8658586,10.64 30.8525253,12.1333333 33.1458586,12.96 L35.0125253,13.6533333 C35.9191919,13.9466667 36.1858586,14.3733333 36.1858586,14.8266667 C36.1858586,15.6 35.4925253,15.9733333 34.7458586,15.9733333 C33.4391919,15.9733333 32.9591919,15.04 32.7458586,14.3733333 L29.4658586,15.2533333 C29.8925253,17.8933333 31.9991919,19.2 34.7991919,19.2 Z" id="Path"></path>
                <path d="M42.0654545,18.9333333 L46.1987879,18.9333333 L46.1987879,11.4933333 C46.1987879,9.76 47.0787879,8.48 48.7587879,8.48 C50.4654545,8.48 51.3454545,9.76 51.3454545,11.4933333 L51.3454545,18.9333333 L55.4787879,18.9333333 L55.4787879,10.7733333 C55.4787879,6.53333333 53.1054545,4.8 50.3054545,4.8 C48.3321212,4.8 46.9721212,5.65333333 46.1987879,6.82666667 L46.1987879,0 L42.0654545,0 L42.0654545,18.9333333 Z" id="Path"></path>
                <path d="M57.9450505,18.9333333 L62.0783838,18.9333333 L62.0783838,5.06666667 L57.9450505,5.06666667 L57.9450505,18.9333333 Z M57.9450505,3.6 L62.0783838,3.6 L62.0783838,0 L57.9450505,0 L57.9450505,3.6 Z" id="Shape"></path>
                <path d="M64.5446465,18.9333333 L68.6779798,18.9333333 L68.6779798,11.4933333 C68.6779798,9.76 69.5579798,8.48 71.2379798,8.48 C72.9446465,8.48 73.8246465,9.76 73.8246465,11.4933333 L73.8246465,18.9333333 L77.9579798,18.9333333 L77.9579798,10.7733333 C77.9579798,6.53333333 75.5846465,4.8 72.7846465,4.8 C70.8113131,4.8 69.4513131,5.65333333 68.6779798,6.82666667 L68.6779798,5.06666667 L64.5446465,5.06666667 L64.5446465,18.9333333 Z" id="Path"></path>
                <path d="M90.490505,19.2 C93.6371717,19.2 97.1838384,17.5466667 97.1838384,12.4533333 L97.1838384,0 L92.970505,0 L92.970505,11.8666667 C92.970505,15.04 90.890505,15.1466667 90.2771717,15.1466667 C88.8371717,15.1466667 87.930505,14.1866667 87.3971717,13.4933333 L84.7038384,16.2133333 C85.8238384,17.9733333 87.770505,19.2 90.490505,19.2 Z" id="Path"></path>
                <path d="M105.596768,19.2 C108.050101,19.2 109.490101,17.8666667 109.703434,17.36 L109.783434,17.36 L109.783434,18.9333333 L113.916768,18.9333333 L113.916768,5.06666667 L109.783434,5.06666667 L109.783434,6.64 L109.703434,6.64 C109.490101,6.13333333 108.050101,4.8 105.596768,4.8 C102.450101,4.8 98.9834343,7.17333333 98.9834343,12 C98.9834343,16.8266667 102.450101,19.2 105.596768,19.2 Z M103.063434,12 C103.063434,9.76 104.690101,8.48 106.450101,8.48 C108.263434,8.48 109.890101,9.73333333 109.890101,12 C109.890101,14.2666667 108.263434,15.52 106.450101,15.52 C104.690101,15.52 103.063434,14.24 103.063434,12 Z" id="Shape"></path>
                <polygon id="Path" points="120.996364 18.9333333 124.836364 18.9333333 130.649697 5.06666667 126.436364 5.06666667 122.916364 14.08 119.396364 5.06666667 115.18303 5.06666667"></polygon>
                <path d="M132.182626,18.9333333 L136.31596,18.9333333 L136.31596,5.06666667 L132.182626,5.06666667 L132.182626,18.9333333 Z M132.182626,3.6 L136.31596,3.6 L136.31596,0 L132.182626,0 L132.182626,3.6 Z" id="Shape"></path>
                <polygon id="Path" points="141.315556 24 145.368889 24 147.502222 18.9333333 153.315556 5.06666667 149.102222 5.06666667 145.582222 14.08 142.062222 5.06666667 137.848889 5.06666667 143.608889 18.7733333"></polygon>
                <path d="M159.995152,19.2 C162.448485,19.2 163.888485,17.8666667 164.101818,17.36 L164.181818,17.36 L164.181818,18.9333333 L168.315152,18.9333333 L168.315152,5.06666667 L164.181818,5.06666667 L164.181818,6.64 L164.101818,6.64 C163.888485,6.13333333 162.448485,4.8 159.995152,4.8 C156.848485,4.8 153.381818,7.17333333 153.381818,12 C153.381818,16.8266667 156.848485,19.2 159.995152,19.2 Z M157.461818,12 C157.461818,9.76 159.088485,8.48 160.848485,8.48 C162.661818,8.48 164.288485,9.73333333 164.288485,12 C164.288485,14.2666667 162.661818,15.52 160.848485,15.52 C159.088485,15.52 157.461818,14.24 157.461818,12 Z" id="Shape"></path>
            </g>
        </g>
    </g>
</svg>