<?xml version="1.0" encoding="UTF-8"?>
<svg width="24px" height="24px" viewBox="0 0 24 24" version="1.1" xmlns="http://www.w3.org/2000/svg" xmlns:xlink="http://www.w3.org/1999/xlink">
    <title>linkedin-24@3x</title>
    <g id="âš™ï¸-Symbols" stroke="none" stroke-width="1" fill="none" fill-rule="evenodd">
        <g id="4.-Elements/1.Menu" transform="translate(-1088.000000, -12.000000)">
            <g id="Group-8" transform="translate(960.000000, 4.000000)">
                <g id="Group-6-Copy" transform="translate(120.000000, 0.000000)">
                    <g id="Linkedin" transform="translate(8.000000, 8.000000)">
                        <rect id="Rectangle-5" fill="#FFFFFF" fill-rule="nonzero" opacity="0" x="0" y="0" width="24" height="24"></rect>
                        <path d="M4.40388184,20 L4.40388184,9.1308548 L7.52234208,9.1308548 L7.52234208,20 L4.40388184,20 Z M16.0422879,9.02622824 C18.2586066,9.02622824 20,10.5896638 20,13.9560358 L20,19.9998569 L16.4638655,19.9998569 L16.4638655,14.375401 C16.4638655,12.9030904 15.9104364,11.8983314 14.694714,11.8983314 C13.7639469,11.8983314 13.2465166,12.5762813 13.005801,13.2298994 C12.9155869,13.4646294 12.929466,13.7914386 12.929466,14.1182476 L12.929466,19.9998569 L9.4262944,19.9998569 C9.4262944,19.9998569 9.47140144,10.0362353 9.4262944,9.13071168 L12.929466,9.13071168 L12.929466,10.8363211 C13.136785,10.0906239 14.2562212,9.02622824 16.0422879,9.02622824 Z M5.90490648,4 C7.05557064,4 7.76297096,4.81153616 7.78552456,5.8840424 C7.78552456,6.93746496 7.05557064,7.77142448 5.8832204,7.77142448 L5.86066688,7.77142448 C4.73212256,7.77142448 4,6.94032752 4,5.88738208 C4,4.81344448 4.75380864,4 5.90490648,4 Z" id="Combined-Shape" fill="#282828"></path>
                    </g>
                </g>
            </g>
        </g>
    </g>
</svg>