<?xml version="1.0" encoding="UTF-8"?>
<svg width="48px" height="48px" viewBox="0 0 48 48" version="1.1" xmlns="http://www.w3.org/2000/svg" xmlns:xlink="http://www.w3.org/1999/xlink">
    <title>logo-keshin-javiya</title>
    <g id="⚙️-Symbols" stroke="none" stroke-width="1" fill="none" fill-rule="evenodd">
        <g id="logo-keshin-javiya" fill="#F65D2B">
            <path d="M24,0 C37.254834,-2.4348735e-15 48,10.745166 48,24 C48,37.254834 37.254834,48 24,48 C10.745166,48 1.623249e-15,37.254834 0,24 C-1.623249e-15,10.745166 10.745166,2.4348735e-15 24,0 Z M27,12 L15,12 L15,24.9761837 L27,36 L27,12 Z M28,18 L28.0049406,18 C31.3159205,18 34,20.6840795 34,23.9950594 C34,27.3068376 31.3167196,29.9923284 28.0049426,29.9950554 L27.999998,29.9950594 C24.6862947,30.0027266 21.9977921,27.3186479 21.9950635,24.0049406 C21.9950622,24.0032937 21.9950615,24.0016469 22,24 C22,20.6862915 24.6862915,18 28,18 Z" id="Combined-Shape"></path>
        </g>
    </g>
</svg>