<?xml version="1.0" encoding="UTF-8"?>
<svg width="39px" height="37px" viewBox="0 0 39 37" version="1.1" xmlns="http://www.w3.org/2000/svg" xmlns:xlink="http://www.w3.org/1999/xlink">
    <title>pixel-perfect-40@3x</title>
    <g id="🖥-Website-UI" stroke="none" stroke-width="1" fill="none" fill-rule="evenodd">
        <g id="2.-Services---Capabilities" transform="translate(-833.000000, -1426.000000)">
            <g id="3.-Services" transform="translate(160.000000, 632.000000)">
                <g id="3.-Services-Copy" transform="translate(0.000000, 664.000000)">
                    <g id="pixel-perfect-40" transform="translate(672.000000, 128.000000)">
                        <polygon id="Background" points="0 0 40 0 40 40 0 40"></polygon>
                        <g id="Group" transform="translate(2.500000, 3.550000)" fill="#000000">
                            <g id="Vector" transform="translate(2.290000, 0.000000)">
                                <path d="M-1.5,16.2895 L-1.49447964,15.6764125 C-1.38792673,9.75771646 0.256071667,4.072995 2.99836,-0.74231 L3.07581674,-0.864441915 C3.51540581,-1.48944862 4.36658588,-1.68929471 5.04412,-1.30345 C5.76399,-0.89348 6.01522,0.02244 5.60526,0.74231 L5.34153474,1.21515604 C2.91598231,5.65652497 1.5,10.8787414 1.5,16.2895 L1.50555751,16.8842871 C1.61284373,22.6208539 3.26886167,27.9746567 6.07234,32.5496 C6.07234,32.5496 5.95464008,32.6217265 5.76973542,32.7350361 C5.95420214,32.6219949 6.07234,32.5496 6.07234,32.5496 C6.50519,33.256 6.28347,34.1795 5.57711,34.6123 C4.87076,35.0451 3.94725,34.8234 3.51441,34.1171 C0.33344,28.9261 -1.5,22.8196 -1.5,16.2895 Z" id="Vector-border"></path>
                            </g>
                            <g id="Vector">
                                <path d="M7.2198,7.1399 L5.6,1.882 L0.44901,3.49866 L-0.160049005,1.55728357 C0.102485386,2.39411231 0.44901,3.49866 0.44901,3.49866 C-0.34143,3.74664 -1.18324,3.3069 -1.43122,2.51645 C-1.6792,1.72601 -1.23945,0.8842 -0.44901,0.63622 L6.1409,-1.43122 L6.285044,-1.46869768 C6.62403828,-1.53907734 6.978725,-1.4902425 7.28788,-1.32772 C7.64121,-1.14198 7.90593,-0.82308 8.02344,-0.4416 L10.0869,6.2567 L9.95328895,6.29785841 C10.0381214,6.27172609 10.0869,6.2567 10.0869,6.2567 C10.3307,7.04842 9.88664,7.88794 9.09492,8.13182 C8.30321,8.37571 7.46369,7.93161 7.2198,7.1399 C7.2198,7.1399 7.35529622,7.09816087 7.56737726,7.03283006 L7.2198,7.1399 Z" id="Vector-border"></path>
                            </g>
                            <g id="Vector" transform="translate(21.950000, 23.880000)">
                                <path d="M-0.890148642,1.20745974 C-1.50573107,0.754761246 -1.68755529,-0.100456471 -1.28748,-0.76968 C-0.86239,-1.48073 0.05863,-1.71256 0.76968,-1.28748 L5.06127,1.27812 C5.77232,1.7032 6.00415,2.62422 5.57907,3.33527 C5.15399,4.04633 4.23297,4.27815 3.52191,3.85307 L-0.76968,1.28748 Z" id="Vector-border"></path>
                            </g>
                            <g id="Vector" transform="translate(10.000000, 9.780000)">
                                <path d="M21.6816,1.96359 L21.5527941,1.85890935 C20.803687,1.30395747 19.7424778,1.39828333 19.1046,2.10231 L12.7626,9.10099 C12.2825,9.63083 11.4951,9.74813 10.8814,9.38124 L3.01349,4.67766 C2.53945,4.39427 1.92545,4.54882 1.64206,5.02285 C1.35868,5.4969 1.51323,6.11091 1.98726,6.39429 L12.7162,12.8083 C13.0577,13.0124 13.3041,13.3438 13.4012,13.7296 C13.4861625,14.067175 13.4507688,14.4222062 13.3037947,14.7344008 L13.234,14.8654 L11.5236,17.7265 C11.4764,17.8055 11.5022,17.9078 11.5812,17.955 L11.408,18.244 L11.5812,17.9551 L17.3033,21.3758 C17.6135,21.5613 18.0325,21.6639 18.6536,21.6673 C19.2943,21.6708 19.9962,21.5726 20.8619,21.4563 C22.4187,21.2473 24.6632,20.9213 26.5939,22.0755 C27.305,22.5006 27.5368,23.4216 27.1117,24.1326 C26.6867,24.8437 25.7656,25.0755 25.0546,24.6504 L24.8954953,24.5631354 C24.0316031,24.1300955 22.9163588,24.2073882 21.2613,24.4296 C20.4694,24.536 19.5331,24.6721 18.6372,24.6672 C17.7216,24.6622 16.7055,24.5137 15.764,23.9508 L10.0418,20.53 C8.54071,19.6326 8.05131,17.6882 8.94869,16.1871 L9.889,14.614 L0.44791,8.96925 L0.268416955,8.85548632 C-1.48630103,7.67782842 -2.02987387,5.31849387 -0.93289,3.48351 L-0.819126318,3.30400699 C0.319276318,1.60778017 2.56189013,1.04330912 4.36766696,1.99845514 L4.55285,2.1027 L11.365,6.175 L16.8815,0.08786 C18.6623,-1.87738 21.6941,-2.04058 23.6756,-0.27785 L26.8303,2.52856 L26.9397475,2.63628216 C27.4538578,3.19641039 27.4702875,4.06599437 26.9541,4.64626 C26.4034,5.26522 25.4553,5.32062 24.8363,4.77 L21.6816,1.96359 Z" id="Vector-border"></path>
                            </g>
                        </g>
                    </g>
                </g>
            </g>
        </g>
    </g>
</svg>