<?xml version="1.0" encoding="UTF-8"?>
<svg width="40px" height="40px" viewBox="0 0 40 40" version="1.1" xmlns="http://www.w3.org/2000/svg" xmlns:xlink="http://www.w3.org/1999/xlink">
    <title>responsive-design-40@3x</title>
    <g id="🖥-Website-UI" stroke="none" stroke-width="1" fill="none" fill-rule="evenodd">
        <g id="2.-Services---Capabilities" transform="translate(-832.000000, -1834.000000)">
            <g id="3.-Services" transform="translate(160.000000, 604.000000)">
                <g id="3.-Services-Copy" transform="translate(0.000000, 664.000000)">
                    <g id="features" transform="translate(672.000000, 128.000000)">
                        <g id="responsive-design-40" transform="translate(0.000000, 438.000000)">
                            <polygon id="Background" points="0 0 40 0 40 40 0 40"></polygon>
                            <g id="desktop-mobile" fill="#141414">
                                <path d="M36.2790698,15.0027163 L36.2790698,6.97674419 C36.2790698,2.47813953 33.8009302,0 29.3023256,0 L6.97674419,0 C2.47813953,0 0,2.47813953 0,6.97674419 L0,21.8604651 C0,26.3590698 2.47813953,28.8372093 6.97674419,28.8372093 L13.0232558,28.8372093 L13.0232558,33.4883721 L9.76744186,33.4883721 C8.9972093,33.4883721 8.37209302,34.1134884 8.37209302,34.8837209 C8.37209302,35.6539535 8.9972093,36.2790698 9.76744186,36.2790698 L20.5877209,36.2790698 C21.0305116,38.6567442 22.7404651,40 25.4474419,40 L35.015814,40 C38.1823256,40 40,38.1750698 40,34.991814 L40,19.891907 C40,17.1626047 38.6567442,15.441786 36.2790698,15.0027163 Z M6.97674419,2.79069767 L29.3023256,2.79069767 C32.2362791,2.79069767 33.4883721,4.0427907 33.4883721,6.97674419 L33.4883721,14.8837209 L25.4493023,14.8837209 C22.7404651,14.8837209 21.0305116,16.2269767 20.5895814,18.6046512 L2.79251886,18.6046512 L2.79251886,6.97674419 C2.79066047,4.0427907 4.0427907,2.79069767 6.97674419,2.79069767 Z M2.79069767,21.8604651 L2.79069767,21.3953488 L20.4651163,21.3953488 L20.4651163,26.0465116 L20,26.0465116 L14.4186047,26.0465116 L6.97674419,26.0465116 C4.0427907,26.0465116 2.79069767,24.7944186 2.79069767,21.8604651 Z M15.8139535,28.8372093 L20,28.8372093 L20.4651163,28.8372093 L20.4651163,33.4883721 L15.8139535,33.4883721 L15.8139535,28.8372093 Z M37.2093023,34.991814 C37.2093023,36.6290233 36.6344186,37.2093023 35.015814,37.2093023 L25.4474419,37.2093023 C23.8288372,37.2093023 23.2539535,36.6290233 23.2539535,34.991814 L23.2539535,19.891907 C23.2539535,18.2546977 23.8288372,17.6744186 25.4474419,17.6744186 L35.015814,17.6744186 C36.6344186,17.6744186 37.2093023,18.2546977 37.2093023,19.891907 L37.2093023,34.991814 Z M32.0930233,33.9534884 C32.0930233,34.9804651 31.2595349,35.8139535 30.2325581,35.8139535 C29.2055814,35.8139535 28.372093,34.9804651 28.372093,33.9534884 C28.372093,32.9265116 29.2055814,32.0930233 30.2325581,32.0930233 C31.2595349,32.0930233 32.0930233,32.9265116 32.0930233,33.9534884 Z" id="Shape"></path>
                            </g>
                        </g>
                    </g>
                </g>
            </g>
        </g>
    </g>
</svg>