<?xml version="1.0" encoding="UTF-8"?>
<svg width="40px" height="40px" viewBox="0 0 40 40" version="1.1" xmlns="http://www.w3.org/2000/svg" xmlns:xlink="http://www.w3.org/1999/xlink">
    <title>seo-website-40@3x</title>
    <g id="🖥-Website-UI" stroke="none" stroke-width="1" fill="none" fill-rule="evenodd">
        <g id="2.-Services---Capabilities" transform="translate(-832.000000, -1615.000000)">
            <g id="3.-Services" transform="translate(160.000000, 604.000000)">
                <g id="3.-Services-Copy" transform="translate(0.000000, 664.000000)">
                    <g id="features" transform="translate(672.000000, 128.000000)">
                        <g id="seo-website-40" transform="translate(0.000000, 219.000000)">
                            <polygon id="Background" points="0 0 40 0 40 40 0 40"></polygon>
                            <g id="search-text" fill="#141414">
                                <path d="M39.549225,37.374359 L31.6701496,29.4953846 C34.3040295,26.3712821 35.8978961,22.3446154 35.8978961,17.9487179 C35.8978961,8.05128205 27.8465109,0 17.9489481,0 C8.05138527,0 0,8.05128205 0,17.9487179 C0,27.8461538 8.05138527,35.8974359 17.9489481,35.8974359 C22.3449019,35.8974359 26.3716201,34.3035897 29.4957628,31.6697436 L37.3748381,39.5487179 C37.6743292,39.8482051 38.0681804,40 38.4620316,40 C38.8558828,40 39.249734,39.8502564 39.549225,39.5487179 C40.1502583,38.9497436 40.1502583,37.9753846 39.549225,37.374359 Z M3.07696253,17.9487179 C3.07696253,9.74769231 9.74781728,3.07692308 17.9489481,3.07692308 C26.1500788,3.07692308 32.8209336,9.74769231 32.8209336,17.9487179 C32.8209336,26.1497436 26.1500788,32.8205128 17.9489481,32.8205128 C9.74781728,32.8205128 3.07696253,26.1497436 3.07696253,17.9487179 Z M24.1028731,13.3333333 L11.795023,13.3333333 C10.9457814,13.3333333 10.2565418,14.0225641 10.2565418,14.8717949 C10.2565418,15.7210256 10.9457814,16.4102564 11.795023,16.4102564 L24.1028731,16.4102564 C24.9521148,16.4102564 25.6413544,15.7210256 25.6413544,14.8717949 C25.6413544,14.0225641 24.9521148,13.3333333 24.1028731,13.3333333 Z M20.0002564,19.4871795 L11.795023,19.4871795 C10.9457814,19.4871795 10.2565418,20.1764103 10.2565418,21.025641 C10.2565418,21.8748718 10.9457814,22.5641026 11.795023,22.5641026 L20.0002564,22.5641026 C20.8494981,22.5641026 21.5387377,21.8748718 21.5387377,21.025641 C21.5387377,20.1764103 20.8494981,19.4871795 20.0002564,19.4871795 Z" id="Shape"></path>
                            </g>
                        </g>
                    </g>
                </g>
            </g>
        </g>
    </g>
</svg>