<?xml version="1.0" encoding="UTF-8"?>
<svg width="24px" height="24px" viewBox="0 0 24 24" version="1.1" xmlns="http://www.w3.org/2000/svg" xmlns:xlink="http://www.w3.org/1999/xlink">
    <title>instagram-24@3x</title>
    <g id="âš™ï¸-Symbols" stroke="none" stroke-width="1" fill="none" fill-rule="evenodd">
        <g id="3.-Section/Footer-Section" transform="translate(-1120.000000, -248.000000)" fill="#282828">
            <g id="3.-Social" transform="translate(1120.000000, 128.000000)">
                <g id="social-icon" transform="translate(0.000000, 56.000000)">
                    <g id="Instagram-Copy" transform="translate(0.000000, 64.000000)">
                        <g id="Instagram" transform="translate(2.000000, 2.000000)">
                            <path d="M10,0 C4.4775,0 0,4.4775 0,10 C0,15.5225 4.4775,20 10,20 C15.5225,20 20,15.5225 20,10 C20,4.4775 15.5225,0 10,0 Z M14.635,6.80083333 C14.485,8.38166667 13.8333333,12.2191667 13.5025,13.99 C13.3625,14.74 13.0858333,14.9908333 12.8191667,15.015 C12.2383333,15.0683333 11.7975,14.6308333 11.235,14.2625 C10.355,13.6858333 9.8575,13.3266667 9.00333333,12.7633333 C8.01583333,12.1125 8.65583333,11.755 9.21833333,11.1708333 C9.36583333,11.0175 11.9241667,8.69 11.9741667,8.47916667 C11.98,8.4525 11.9866667,8.35416667 11.9275,8.3025 C11.8683333,8.25083333 11.7825,8.26833333 11.7208333,8.2825 C11.6325,8.3025 10.2266667,9.23166667 7.5025,11.07 C7.10333333,11.3441667 6.74166667,11.4775 6.4175,11.4708333 C6.06083333,11.4633333 5.37416667,11.2691667 4.86333333,11.1025 C4.2375,10.8991667 3.73916667,10.7908333 3.7825,10.4458333 C3.805,10.2658333 4.0525,10.0816667 4.52583333,9.89333333 C7.44083333,8.62333333 9.385,7.78583333 10.3575,7.38083333 C13.135,6.22583333 13.7116667,6.025 14.0883333,6.01824889 C14.56,6.01166667 14.6733333,6.40083333 14.635,6.80083333 Z" id="Shape"></path>
                        </g>
                    </g>
                </g>
            </g>
        </g>
    </g>
</svg>